:version 1.10
:name ASF
:units
  mass 1
  length 1
  angle deg
:documentation
  ASF file generated by Kaydara
:root
  axis xyz
  order  tx ty tz rx ry rz
  position 0 0 0
  orientation 0 0 0
:bonedata
  begin
    id 1
    name RightUpLegDummy
    direction -0.718183 -0.695806 0.00816078
    length 4.904
    axis 0 0 0 xyz
  end
  begin
    id 2
    name RightUpLeg
    direction 3.53373e-006 -0.995788 0.0916898
    length 17.4976
    axis -3.49089 -0.000906625 0.000286804 xyz
    dof rx ry rz
  end
  begin
    id 3
    name RightLeg
    direction 0.00371092 -0.995096 -0.0988419
    length 16.5821
    axis 3.68512 0.0193738 -0.131023 xyz
    dof rx ry rz
  end
  begin
    id 4
    name RightFoot
    direction 0.00079151 -0.46099 0.887405
    length 3.77069
    axis 4.81691e-005 -0.120479 -0.188788 xyz
    dof rx ry rz
  end
  begin
    id 5
    name RightToes
    direction 0.00124746 -0.014064 0.9999
    length 3.85082
    axis 0.000481921 0.542163 -0.142578 xyz
    dof rx ry rz
  end
  begin
    id 6
    name SpineDummy
    direction 8.3039e-015 1 4.57515e-016
    length 4.6813
    axis 0 0 0 xyz
  end
  begin
    id 7
    name Spine
    direction -3.15643e-008 0.999988 0.00495137
    length 10.1015
    axis -0.001389 0.000121418 2.40972e-006 xyz
    dof rx ry rz
  end
  begin
    id 8
    name Spine1
    direction 0 0 0
    length 0
    axis -0.001389 0.000121451 1.30017e-006 xyz
    dof rx ry rz
  end
  begin
    id 9
    name HEadDummy
    direction -1.99912e-008 0.999999 0.00127422
    length 3.43865
    axis -0.001389 0.000121451 1.30017e-006 xyz
  end
  begin
    id 10
    name HEad
    direction -0.0222688 0.980941 0.193023
    length 5.12695
    axis -0.001389 0.000121451 1.30017e-006 xyz
    dof rx ry rz
  end
  begin
    id 11
    name LeftShoulder1Dummy
    direction 0.998891 -0.0402509 -0.0244456
    length 3.5433
    axis -0.001389 0.000121451 1.30017e-006 xyz
  end
  begin
    id 12
    name LeftShoulder1
    direction 0.99951 -0.000327763 0.0313091
    length 4.05031
    axis -0.001389 0.000121451 1.30017e-006 xyz
    dof rx ry rz
  end
  begin
    id 13
    name LeftArm
    direction 0.998561 -0.00100056 -0.0536182
    length 10.3537
    axis -23.1894 0.134784 0.967509 xyz
    dof rx ry rz
  end
  begin
    id 14
    name LeftForeArm
    direction 0.998903 0.00866432 0.046012
    length 8.70632
    axis -9.91835 -0.06569 -0.177794 xyz
    dof rx ry rz
  end
  begin
    id 15
    name LeftHand
    direction 0.992938 -0.0411637 0.11126
    length 5.32135
    axis -0.00960232 -0.00340091 0.185173 xyz
    dof rx ry rz
  end
  begin
    id 16
    name RightShoulderDummy
    direction -0.998891 -0.0402509 -0.0244414
    length 3.5433
    axis -0.001389 0.000121451 1.30017e-006 xyz
  end
  begin
    id 17
    name RightShoulder
    direction -0.99951 -0.000327807 0.0313133
    length 4.05031
    axis 0.215806 0.000203643 -0.0068026 xyz
    dof rx ry rz
  end
  begin
    id 18
    name RightArm
    direction -0.998573 -0.000999564 -0.053403
    length 10.3947
    axis -23.2009 -0.134239 -0.964101 xyz
    dof rx ry rz
  end
  begin
    id 19
    name RightForeArm
    direction -0.998898 0.00868028 0.0461306
    length 8.68355
    axis -9.92322 0.0658061 0.178868 xyz
    dof rx ry rz
  end
  begin
    id 20
    name RightHand
    direction -0.992843 -0.0414603 0.112003
    length 5.28593
    axis -0.00960638 0.00330671 -0.185228 xyz
    dof rx ry rz
  end
  begin
    id 21
    name LeftUpLegDummy
    direction 0.718183 -0.695806 0.00816078
    length 4.904
    axis 0 0 0 xyz
  end
  begin
    id 22
    name LeftUpLeg
    direction -6.81752e-006 -0.995793 0.0916337
    length 17.4976
    axis -3.48766 0.00143442 -0.000524262 xyz
    dof rx ry rz
  end
  begin
    id 23
    name LeftLeg
    direction -0.00601358 -0.995091 -0.0987824
    length 16.5821
    axis 3.68178 -0.00654042 -0.000285133 xyz
    dof rx ry rz
  end
  begin
    id 24
    name LeftFoot
    direction -0.00417578 -0.460984 0.887399
    length 3.77069
    axis 1.87233e-006 4.66016e-005 -8.6538e-006 xyz
    dof rx ry rz
  end
  begin
    id 25
    name LeftToes
    direction 0.00818058 -0.00485161 0.999955
    length 3.85048
    axis 1.06247e-005 4.65869e-005 -8.65513e-006 xyz
    dof rx ry rz
  end
:hierarchy
  begin
    root RightUpLegDummy SpineDummy LeftUpLegDummy
    RightUpLegDummy RightUpLeg
    RightUpLeg RightLeg
    RightLeg RightFoot
    RightFoot RightToes
    SpineDummy Spine
    Spine Spine1
    Spine1 HEadDummy LeftShoulder1Dummy RightShoulderDummy
    HEadDummy HEad
    LeftShoulder1Dummy LeftShoulder1
    LeftShoulder1 LeftArm
    LeftArm LeftForeArm
    LeftForeArm LeftHand
    RightShoulderDummy RightShoulder
    RightShoulder RightArm
    RightArm RightForeArm
    RightForeArm RightHand
    LeftUpLegDummy LeftUpLeg
    LeftUpLeg LeftLeg
    LeftLeg LeftFoot
    LeftFoot LeftToes
  end

:SAMPLES-PER-SECOND 30
:FRAME-RANGE 1-3535
:FULLY-SPECIFIED
:DEGREES
1
root  -89.9042 39.879 -0.466805 178.188 72.2751 176.742
RightUpLeg  4.9027 -5.1112 -2.40262
RightLeg  0.530625 -7.59999 0.571201
RightFoot  -6.24665 -0.204815 3.65451
RightToes  1.22775e-009 1.2921e-014 -6.02303e-014
Spine  2.44119 0.966535 4.0174
Spine1  0.0431655 1.66445 -3.14865
HEad  3.72505 12.8665 -4.51018
LeftShoulder1  1.3657 0.0773984 -33.9588
LeftArm  24.0519 6.12527 -31.5078
LeftForeArm  -0.663879 -12.086 -14.5511
LeftHand  0.518047 -3.73598 -6.19332
RightShoulder  9.28943 11.3413 54.6612
RightArm  21.5687 3.15001 14.5692
RightForeArm  17.2616 0.374214 18.1306
RightHand  0.424604 5.34294 4.24311
LeftUpLeg  0.639055 9.45711 7.28999
LeftLeg  -2.91673 9.65306 -2.45413
LeftFoot  2.81087 1.0235 -8.37311
LeftToes  2.52163e-011 5.65494e-011 -1.09494e-012
2
root  -89.9232 39.8864 -0.487954 178.084 72.24 176.627
RightUpLeg  4.99733 -5.1079 -2.45679
RightLeg  0.310688 -7.62629 0.557237
RightFoot  -6.09064 -0.199253 3.5682
RightToes  1.22775e-009 1.2921e-014 -6.02303e-014
Spine  2.35261 0.980006 4.00217
Spine1  0.132067 1.68456 -3.19442
HEad  3.57416 13.3001 -4.48307
LeftShoulder1  1.3657 0.0918617 -33.9002
LeftArm  23.2041 6.20302 -31.5636
LeftForeArm  0.0603427 -11.9402 -14.567
LeftHand  0.519587 -3.78137 -6.28658
RightShoulder  9.28402 11.3509 54.5973
RightArm  20.6523 3.34321 14.7331
RightForeArm  18.1284 -0.18619 18.1327
RightHand  0.424283 5.36541 4.24224
LeftUpLeg  0.701003 9.02715 6.98315
LeftLeg  -3.21058 10.1169 -2.1228
LeftFoot  3.00833 1.05237 -8.49492
LeftToes  2.52163e-011 5.65494e-011 -1.09494e-012
3
root  -89.9533 39.8891 -0.509005 177.976 72.314 176.454
RightUpLeg  4.903 -5.10308 -2.53321
RightLeg  0.267409 -7.57783 0.510056
RightFoot  -6.11181 -0.218237 3.86284
RightToes  1.22775e-009 1.2921e-014 -6.02303e-014
Spine  2.28267 1.03438 4.0399
Spine1  0.18002 1.7642 -3.33076
HEad  3.26967 13.7325 -4.62643
LeftShoulder1  1.3657 0.10658 -33.8835
LeftArm  23.5101 6.12753 -31.5438
LeftForeArm  -0.230065 -12.0004 -14.5576
LeftHand  0.517115 -3.74838 -6.15192
RightShoulder  9.33325 11.3916 54.7295
RightArm  21.4296 3.27334 14.6222
RightForeArm  17.3359 0.424711 18.1015
RightHand  0.42552 5.3091 4.27275
LeftUpLeg  0.674904 8.64327 6.68698
LeftLeg  -3.39703 10.6337 -1.83077
LeftFoot  3.08797 1.07853 -8.65722
LeftToes  2.52163e-011 5.65494e-011 -1.09494e-012
4
root  -89.9657 39.8887 -0.530624 178.004 72.2127 176.579
RightUpLeg  5.15569 -5.06932 -2.52441
RightLeg  -0.0295207 -7.76739 0.52705
RightFoot  -6.05189 -0.222426 3.92786
RightToes  1.22775e-009 1.2921e-014 -6.02303e-014
Spine  2.2656 1.02265 4.04632
Spine1  0.270578 1.74316 -3.2877
HEad  3.21334 14.3936 -4.6434
LeftShoulder1  1.3657 0.0910566 -33.9557
LeftArm  24.137 6.09202 -31.4768
LeftForeArm  -0.834382 -12.1869 -14.4899
LeftHand  0.519313 -3.75991 -6.26492
RightShoulder  9.30401 11.3783 54.6133
RightArm  21.0627 3.41002 14.7872
RightForeArm  17.7344 0.160735 18.1161
RightHand  0.424777 5.394 4.29974
LeftUpLeg  0.710997 8.67036 6.70668
LeftLeg  -3.30272 10.479 -1.82682
LeftFoot  3.00423 1.06907 -8.62932
LeftToes  2.52163e-011 5.65494e-011 -1.09494e-012
5
root  -89.9919 39.8835 -0.549688 177.76 72.2519 176.228
RightUpLeg  5.06055 -5.04447 -2.61401
RightLeg  -0.0978919 -7.65455 0.420244
RightFoot  -6.10845 -0.218019 3.85946
RightToes  1.22775e-009 1.2921e-014 -6.02303e-014
Spine  2.15888 1.05321 3.92792
Spine1  0.282973 1.76348 -3.24199
HEad  3.01665 15.09 -4.74291
LeftShoulder1  1.3657 0.0876003 -33.91
LeftArm  23.7495 6.14503 -31.5311
LeftForeArm  -0.587231 -12.1338 -14.4925
LeftHand  0.520583 -3.77702 -6.33334
RightShoulder  9.38755 11.4946 54.6726
RightArm  21.3468 3.31011 14.7318
RightForeArm  17.3612 0.475312 18.0816
RightHand  0.425541 5.32463 4.28778
LeftUpLeg  0.605428 8.86538 6.6872
LeftLeg  -3.25151 10.3048 -2.10601
LeftFoot  2.88934 1.04592 -8.50927
LeftToes  2.52163e-011 5.65494e-011 -1.09494e-012
6
root  -89.9972 39.8678 -0.568358 177.369 72.1553 175.843
RightUpLeg  5.24018 -5.16903 -2.79316
RightLeg  -0.318797 -7.62856 0.440579
RightFoot  -6.35713 -0.215127 3.94708
RightToes  1.22775e-009 1.2921e-014 -6.02303e-014
Spine  2.0776 1.0237 3.74483
Spine1  0.353604 1.71678 -3.15365
HEad  2.87182 15.9304 -4.82783
LeftShoulder1  1.36841 0.0700584 -33.881
LeftArm  23.9838 6.21509 -31.566
LeftForeArm  -0.838022 -12.3819 -14.3362
LeftHand  0.523585 -3.8083 -6.34728
RightShoulder  9.26215 11.2843 54.7082
RightArm  22.4632 3.58954 14.7384
RightForeArm  16.4049 0.86854 18.1454
RightHand  0.434548 5.43733 4.33258
LeftUpLeg  0.524766 9.03523 6.66623
LeftLeg  -2.96843 9.98622 -2.29686
LeftFoot  2.55971 1.02203 -8.50105
LeftToes  2.52163e-011 5.65494e-011 -1.09494e-012
7
root  -90.0025 39.834 -0.579301 176.61 72.2093 175.098
RightUpLeg  5.00788 -5.41065 -3.13
RightLeg  0.374957 -7.19706 0.380378
RightFoot  -7.12694 -0.196312 4.01612
RightToes  1.22775e-009 1.2921e-014 -6.02303e-014
Spine  2.10989 1.04015 3.61828
Spine1  0.365899 1.75709 -3.25587
HEad  2.57092 16.6418 -4.98564
LeftShoulder1  1.37133 0.0708483 -33.8797
LeftArm  23.5801 6.19662 -31.5373
LeftForeArm  -0.674701 -12.5594 -14.1681
LeftHand  0.529937 -3.75741 -6.4668
RightShoulder  9.44174 11.557 54.7556
RightArm  21.0562 3.16875 14.7568
RightForeArm  17.5307 0.770088 17.9734
RightHand  0.43163 5.36181 4.33622
LeftUpLeg  0.32967 9.14858 6.54368
LeftLeg  -2.31865 9.87293 -2.39414
LeftFoot  1.9955 1.00381 -8.67868
LeftToes  2.52163e-011 5.65494e-011 -1.09494e-012
8
root  -90.0024 39.7873 -0.590291 175.695 72.3151 174.376
RightUpLeg  4.44144 -5.5461 -3.42446
RightLeg  2.10653 -6.76191 0.110098
RightFoot  -8.2682 -0.166382 4.10566
RightToes  1.22775e-009 1.2921e-014 -6.02303e-014
Spine  2.35403 1.07161 3.69484
Spine1  0.399329 1.84651 -3.51997
HEad  2.28784 17.3566 -5.26075
LeftShoulder1  1.375 0.0720099 -33.9986
LeftArm  23.4818 5.93336 -31.4768
LeftForeArm  -1.39997 -12.9215 -13.9265
LeftHand  0.568244 -3.76859 -6.94235
RightShoulder  9.3098 11.3231 54.8385
RightArm  22.7858 3.58046 14.8197
RightForeArm  15.9684 1.06928 18.1437
RightHand  0.411848 5.30476 4.1488
LeftUpLeg  0.155621 9.39386 6.51223
LeftLeg  -1.2902 9.6912 -2.49936
LeftFoot  1.33943 0.961402 -8.71473
LeftToes  2.52163e-011 5.65494e-011 -1.09494e-012
9
root  -89.9744 39.7247 -0.584888 174.599 72.4158 173.485
RightUpLeg  3.68411 -5.49658 -3.59017
RightLeg  4.32006 -6.68896 -0.372654
RightFoot  -9.52414 -0.135529 4.46358
RightToes  1.22775e-009 1.2921e-014 -6.02303e-014
Spine  2.3951 1.11941 3.83103
Spine1  0.67417 1.9675 -3.88237
HEad  2.04956 17.6694 -5.78871
LeftShoulder1  1.38699 0.0410727 -33.9875
LeftArm  23.61 5.58233 -31.7472
LeftForeArm  -2.2103 -13.3248 -13.6565
LeftHand  0.554261 -3.60326 -6.9025
RightShoulder  9.61078 11.7988 54.849
RightArm  22.6209 3.51079 15.0362
RightForeArm  15.9248 0.208384 18.3101
RightHand  0.393576 5.23298 3.98218
LeftUpLeg  -0.0748231 9.63585 6.46772
LeftLeg  -0.001202 9.38207 -2.55079
LeftFoot  0.611164 0.893328 -8.55903
LeftToes  2.52163e-011 5.65494e-011 -1.09494e-012
10
root  -89.9104 39.6596 -0.563166 173.069 72.2917 172.207
RightUpLeg  3.16468 -5.55556 -3.86111
RightLeg  6.32701 -6.65534 -0.860437
RightFoot  -10.7197 -0.0961522 4.30697
RightToes  1.22775e-009 1.2921e-014 -6.02303e-014
Spine  2.31098 1.11653 3.77254
Spine1  1.05856 2.01871 -4.10232
HEad  2.00616 17.5887 -6.21176
LeftShoulder1  1.41948 -0.0416749 -33.9705
LeftArm  25.2488 5.15156 -32.0843
LeftForeArm  -4.09236 -14.2939 -13.0402
LeftHand  0.54203 -3.54914 -6.79
RightShoulder  10.0104 12.4631 54.755
RightArm  22.7075 3.44776 15.4587
RightForeArm  14.7781 -0.696939 18.5471
RightHand  0.429239 5.11316 4.42808
LeftUpLeg  -0.226025 9.7855 6.30184
LeftLeg  1.26115 9.17484 -2.575
LeftFoot  -0.285386 0.865206 -8.91076
LeftToes  2.52163e-011 5.65494e-011 -1.09494e-012
11
root  -89.7827 39.6024 -0.54717 171.804 71.9256 171.416
RightUpLeg  3.49373 -5.60438 -4.04153
RightLeg  7.38625 -7.03334 -1.24302
RightFoot  -11.7239 -0.0638343 4.71347
RightToes  1.22775e-009 1.2921e-014 -6.02303e-014
Spine  2.34887 1.00677 4.02201
Spine1  1.32476 2.00442 -4.45569
HEad  2.41813 17.0001 -6.55213
LeftShoulder1  1.42971 -0.0583938 -34.0687
LeftArm  27.0199 4.57827 -32.243
LeftForeArm  -5.49137 -15.3571 -12.2689
LeftHand  0.539665 -3.66478 -6.73923
RightShoulder  10.3152 12.868 55.0109
RightArm  22.5203 3.46469 15.7434
RightForeArm  13.3158 -1.21742 18.6996
RightHand  0.50157 5.22796 5.16115
LeftUpLeg  -0.0935164 9.83117 6.23297
LeftLeg  2.4862 8.66211 -2.45267
LeftFoot  -1.06666 0.823196 -9.07292
LeftToes  2.52163e-011 5.65494e-011 -1.09494e-012
12
root  -89.6171 39.5216 -0.526319 171.387 71.4435 171.514
RightUpLeg  3.98204 -5.59754 -3.9474
RightLeg  8.28769 -7.35486 -1.55532
RightFoot  -12.5959 -0.0316313 4.91582
RightToes  1.22775e-009 1.2921e-014 -6.02303e-014
Spine  2.40243 0.951899 4.56377
Spine1  1.45123 2.02695 -4.61101
HEad  2.97898 16.0356 -7.00564
LeftShoulder1  1.42977 -0.0313933 -34.3722
LeftArm  28.1978 3.81517 -32.3921
LeftForeArm  -6.34449 -16.2392 -11.545
LeftHand  0.539717 -3.73927 -6.60507
RightShoulder  10.4163 12.8642 55.5322
RightArm  23.8895 3.70301 15.7695
RightForeArm  10.9254 -0.576018 18.8365
RightHand  0.518463 5.05635 5.44376
LeftUpLeg  -0.41104 10.2332 6.52375
LeftLeg  4.68865 7.62186 -2.2875
LeftFoot  -2.23821 0.74227 -9.14276
LeftToes  2.52163e-011 5.65494e-011 -1.09494e-012
13
root  -89.4329 39.3634 -0.518813 172.199 70.7197 172.884
RightUpLeg  4.25902 -5.79191 -3.56412
RightLeg  9.83424 -7.58207 -1.73269
RightFoot  -13.886 0.0152405 4.92481
RightToes  1.22775e-009 1.2921e-014 -6.02303e-014
Spine  2.5509 0.851082 5.69779
Spine1  1.45725 2.0399 -4.61206
HEad  3.71637 14.7638 -7.15984
LeftShoulder1  1.41107 0.0125731 -34.3457
LeftArm  27.6816 3.26265 -32.9867
LeftForeArm  -6.20141 -16.93 -10.8343
LeftHand  0.541636 -3.91029 -6.495
RightShoulder  10.3344 12.7378 55.525
RightArm  22.7487 3.79188 16.4366
RightForeArm  11.9602 -0.27479 18.6273
RightHand  0.491877 5.04018 5.15845
LeftUpLeg  -1.83222 12.5553 6.86103
LeftLeg  8.91084 4.26988 -1.21055
LeftFoot  -4.18579 0.626968 -9.61081
LeftToes  2.52163e-011 5.65494e-011 -1.09494e-012
